<svg width="1200" height="720" viewBox="0 0 1200 720" fill="none" xmlns="http://www.w3.org/2000/svg">
  <rect width="1200" height="720" rx="40" fill="#F8FAFC"/>
  <rect x="90" y="90" width="1020" height="540" rx="34" fill="#E0F2FE"/>
  <path d="M190 530C300 430 358 448 448 360C542 268 608 298 688 210C760 132 842 146 990 222" stroke="#94A3B8" stroke-width="18" stroke-linecap="round"/>
  <path d="M236 226L360 278L484 214L608 286L732 224L856 296L980 238" stroke="#CBD5E1" stroke-width="20" stroke-linecap="round"/>
  <circle cx="404" cy="402" r="40" fill="#1C3879"/>
  <path d="M404 338C365 338 334 369 334 408C334 462 404 538 404 538C404 538 474 462 474 408C474 369 443 338 404 338Z" fill="#1C3879"/>
  <circle cx="404" cy="408" r="24" fill="#F8FAFC"/>
  <rect x="706" y="202" width="252" height="180" rx="28" fill="#FFFFFF" fill-opacity="0.72"/>
  <rect x="740" y="242" width="186" height="20" rx="10" fill="#1C3879" fill-opacity="0.16"/>
  <rect x="740" y="284" width="130" height="16" rx="8" fill="#1C3879" fill-opacity="0.12"/>
</svg>
